<svg width="60" height="60" viewBox="0 0 60 60" fill="none" xmlns="http://www.w3.org/2000/svg">
<circle cx="30" cy="30" r="30" fill="#D9D9D9" fill-opacity="0.5"/>
<path d="M52 28.5C52.8284 28.5 53.5 29.1716 53.5 30C53.5 30.8284 52.8284 31.5 52 31.5V28.5ZM6.93934 31.0607C6.35355 30.4749 6.35355 29.5251 6.93934 28.9393L16.4853 19.3934C17.0711 18.8076 18.0208 18.8076 18.6066 19.3934C19.1924 19.9792 19.1924 20.9289 18.6066 21.5147L10.1213 30L18.6066 38.4853C19.1924 39.0711 19.1924 40.0208 18.6066 40.6066C18.0208 41.1924 17.0711 41.1924 16.4853 40.6066L6.93934 31.0607ZM52 31.5H8V28.5H52V31.5Z" fill="#474747"/>
</svg>
