<svg width="60" height="60" viewBox="0 0 60 60" fill="none" xmlns="http://www.w3.org/2000/svg">
<circle cx="30" cy="30" r="30" fill="#D9D9D9" fill-opacity="0.5"/>
<path d="M8 28.5C7.17157 28.5 6.5 29.1716 6.5 30C6.5 30.8284 7.17157 31.5 8 31.5V28.5ZM53.0607 31.0607C53.6464 30.4749 53.6464 29.5251 53.0607 28.9393L43.5147 19.3934C42.9289 18.8076 41.9792 18.8076 41.3934 19.3934C40.8076 19.9792 40.8076 20.9289 41.3934 21.5147L49.8787 30L41.3934 38.4853C40.8076 39.0711 40.8076 40.0208 41.3934 40.6066C41.9792 41.1924 42.9289 41.1924 43.5147 40.6066L53.0607 31.0607ZM8 31.5H52V28.5H8V31.5Z" fill="#474747"/>
</svg>
